<svg width="400" height="300" viewBox="0 0 500 400" fill="none" xmlns="http://www.w3.org/2000/svg">
<g clip-path="url(#clip0_11_56)">
<path opacity="0.1" d="M431.619 309.42H481.8C484.525 307.92 486.394 304.873 486.394 301.36C486.394 296.813 483.263 293.046 479.188 292.4C479.194 292.253 479.2 292.106 479.2 291.953C479.2 286.633 475.075 282.32 469.988 282.32C469.456 282.32 468.938 282.366 468.425 282.46C466.231 278.4 461.95 275.646 457.031 275.646C451.3 275.646 446.438 279.386 444.731 284.573C444.194 284.46 443.638 284.393 443.075 284.393C438.188 284.393 434.225 288.88 434.225 294.413C434.225 295.033 434.275 295.646 434.369 296.233C430.669 296.486 427.744 299.506 427.744 303.2C427.744 305.913 429.319 308.26 431.619 309.42Z" fill="white"/>
<path d="M459.206 223.04C459.206 99.86 365.588 0 250.1 0C134.619 0 41 99.86 41 223.04C41 293.307 71.475 355.973 119.081 396.853H381.125C428.731 355.973 459.206 293.307 459.206 223.04Z" fill="url(#paint0_linear_11_56)"/>
<path opacity="0.4" d="M314.794 139.7C314.794 141.074 314.387 142.18 313.887 142.18H262.481C261.981 142.18 261.575 141.067 261.575 139.7C261.575 138.327 261.981 137.22 262.481 137.22H313.887C314.387 137.22 314.794 138.334 314.794 139.7Z" fill="white"/>
<path opacity="0.4" d="M416.938 117.327C416.938 118.7 415.75 119.807 414.288 119.807H264.225C262.763 119.807 261.575 118.693 261.575 117.327C261.575 115.953 262.763 114.847 264.225 114.847H414.288C415.75 114.847 416.938 115.96 416.938 117.327ZM364.444 127.873C364.444 129.247 363.656 130.353 362.688 130.353H263.325C262.356 130.353 261.569 129.24 261.569 127.873C261.569 126.5 262.356 125.393 263.325 125.393H362.688C363.656 125.393 364.444 126.5 364.444 127.873Z" fill="white"/>
<path fill-rule="evenodd" clip-rule="evenodd" d="M187.95 388.314V387.74H222.369L187.95 388.314ZM177.206 388.314L147.594 387.74H177.206V388.314Z" fill="white"/>
<path d="M401.956 338.373C401.956 338.373 400.606 329.26 400.738 327.3C400.869 325.34 401.375 314.987 401.375 314.987L402.681 313.747C402.681 313.747 401.394 325.28 401.556 328.687C401.712 332.087 401.956 338.373 401.956 338.373Z" fill="url(#paint1_linear_11_56)"/>
<path fill-rule="evenodd" clip-rule="evenodd" d="M346.675 247.86H353.913V400.02H346.675V247.86Z" fill="#1289CC"/>
<path fill-rule="evenodd" clip-rule="evenodd" d="M343.119 247.86H350.356V400.02H343.119V247.86Z" fill="black"/>
<path fill-rule="evenodd" clip-rule="evenodd" d="M370.031 247.86H377.238V400.02H370.031V247.86Z" fill="#1289CC"/>
<path fill-rule="evenodd" clip-rule="evenodd" d="M366.475 247.86H373.681V400.02H366.475V247.86Z" fill="black"/>
<path fill-rule="evenodd" clip-rule="evenodd" d="M193.456 247.86H200.694V400.02H193.456V247.86Z" fill="#125CAE"/>
<path fill-rule="evenodd" clip-rule="evenodd" d="M189.906 247.86H197.144V400.02H189.906V247.86Z" fill="black"/>
<path fill-rule="evenodd" clip-rule="evenodd" d="M216.812 247.86H224.019V400.02H216.812V247.86Z" fill="#1289CC"/>
<path fill-rule="evenodd" clip-rule="evenodd" d="M213.262 247.86H220.469V400.02H213.262V247.86Z" fill="black"/>
<path fill-rule="evenodd" clip-rule="evenodd" d="M163.431 241.547H391.212V256.62H163.431V241.547Z" fill="black"/>
<path fill-rule="evenodd" clip-rule="evenodd" d="M265.144 187.314L335.244 182.047L336.362 184.667L327.169 238.167H323.937L254.65 242.7L265.144 187.314Z" fill="url(#paint2_linear_11_56)"/>
<path fill-rule="evenodd" clip-rule="evenodd" d="M262.694 182.047H334.994L324.5 237.467H252.194L262.694 182.047Z" fill="black"/>
<path fill-rule="evenodd" clip-rule="evenodd" d="M304.869 237.367H324.712V241.54H304.869V237.367Z" fill="url(#paint3_linear_11_56)"/>
<path fill-rule="evenodd" clip-rule="evenodd" d="M238.031 237.367H304.869V241.54H238.031V237.367Z" fill="#431CA3"/>
<path fill-rule="evenodd" clip-rule="evenodd" d="M265.144 185.26L255.856 234.22H322.012L331.3 185.26H265.144Z" fill="#3F2759"/>
<path fill-rule="evenodd" clip-rule="evenodd" d="M277.319 241.547C279.556 241.84 284.275 241.08 287.631 238.767C290.956 236.447 293.594 234.247 293.594 234.247C293.594 234.247 300.837 235.253 301.3 233.487C301.5 231.127 291.912 228.333 290.581 228.167C289.212 228 277.975 229.687 276.825 230.913C275.675 232.133 277.319 241.547 277.319 241.547ZM239.862 234.82C242.1 235.12 246.819 234.36 250.144 232.04C253.469 229.72 256.637 226.34 256.637 226.34C256.637 226.34 263.875 227.067 263.719 226.34C263.531 225.647 254.462 221.6 253.094 221.44C251.756 221.273 240.487 222.967 239.337 224.193C238.187 225.407 239.862 234.82 239.862 234.82Z" fill="white"/>
<path fill-rule="evenodd" clip-rule="evenodd" d="M253 225.48C253.713 226.44 258.25 230.053 257.381 231.44C256.513 232.867 254.431 233.46 252.163 231.707C249.894 229.953 248.469 227.893 249.088 227.2C249.713 226.507 253 225.48 253 225.48Z" fill="white"/>
<path fill-rule="evenodd" clip-rule="evenodd" d="M156.444 177.74C149.55 180.72 151.194 194.9 154.331 205.073C157.438 215.246 189.644 239.26 199.181 241.913C208.719 244.533 245.706 232.206 245.706 232.206C248.219 226.74 246.05 220.94 241.481 222.2C241.481 222.2 205.425 228.226 200.019 221.573C195.669 216.233 163.744 174.593 156.444 177.74Z" fill="url(#paint4_linear_11_56)"/>
<path fill-rule="evenodd" clip-rule="evenodd" d="M185.637 159.32C174.362 183.533 151.194 175.453 145.731 152.3C140.262 129.173 138.837 109.2 157.844 105.687C178.494 101.873 196.944 135.1 185.637 159.32Z" fill="url(#paint5_linear_11_56)"/>
<path fill-rule="evenodd" clip-rule="evenodd" d="M150.356 159.853C152.5 167.04 151.844 186.32 151.844 186.32C151.844 186.32 182.344 195.793 181.412 191.42C177.687 173.693 175.794 158.193 172.375 154.947C169.55 152.293 162.594 161.207 150.356 159.853Z" fill="white"/>
<path fill-rule="evenodd" clip-rule="evenodd" d="M212.5 378.1C212.5 378.1 219.05 386.547 227.531 390.327C236.012 394.107 239.831 395.727 238.462 398.047C237.094 400.367 226.225 399.273 218.025 399.573C209.856 399.873 204.331 400.533 204.05 397.753C203.769 395.007 205.075 379.733 205.075 379.733L212.5 378.1Z" fill="black"/>
<path fill-rule="evenodd" clip-rule="evenodd" d="M200.575 312.374C200.887 321.847 203.9 392.894 203.9 392.894C206.006 395.487 219.931 390.16 220.906 386.554C220.906 386.554 226.881 307.467 224.55 307.1C222.256 306.774 200.575 312.374 200.575 312.374Z" fill="url(#paint6_linear_11_56)"/>
<path fill-rule="evenodd" clip-rule="evenodd" d="M284.062 378.434C284.062 378.434 290.619 386.88 299.062 390.694C307.544 394.474 311.362 396.06 309.994 398.414C308.625 400.734 297.756 399.607 289.587 399.907C281.387 400.207 275.862 400.867 275.581 398.12C275.3 395.34 276.606 380.067 276.606 380.067L284.062 378.434Z" fill="black"/>
<path fill-rule="evenodd" clip-rule="evenodd" d="M155.387 283.78C154.394 291.166 143.862 302.733 156.694 314.293C169.519 325.853 252.106 316.08 253.162 317.64C254.219 319.166 274.656 394.12 274.656 394.12C274.656 394.12 292.337 393.526 291.412 385.806C284.587 365.7 285.712 301.506 271.894 294.48C258.094 287.46 155.387 283.78 155.387 283.78Z" fill="url(#paint7_linear_11_56)"/>
<path fill-rule="evenodd" clip-rule="evenodd" d="M189.237 179.66C177.406 176.313 142.044 173.613 137.306 184.4C126.306 209.447 135.062 305.687 150.375 307.273C160.219 308.3 209.081 306.707 210.725 287.793C212.875 262.913 191.287 226.933 189.237 179.66Z" fill="url(#paint8_linear_11_56)"/>
<path fill-rule="evenodd" clip-rule="evenodd" d="M136.363 258.193H148.35V321.667H136.363V258.193Z" fill="white"/>
<path fill-rule="evenodd" clip-rule="evenodd" d="M133.812 257.68H145.8V321.154H133.812V257.68Z" fill="black"/>
<path fill-rule="evenodd" clip-rule="evenodd" d="M189.238 179.66C182.344 182.64 183.956 196.853 187.094 207.026C190.231 217.166 222.438 241.18 231.975 243.833C241.513 246.453 279.65 241.32 279.65 241.32C282.138 235.853 279.994 230.053 275.394 231.313C275.394 231.313 238.188 230.153 232.781 223.493C228.469 218.153 196.506 176.513 189.238 179.66Z" fill="url(#paint9_linear_11_56)"/>
<path fill-rule="evenodd" clip-rule="evenodd" d="M177.25 128.774C175.044 125.794 181.069 138.247 179.238 143.48C179.269 137.88 166.538 131.12 171.444 146.327C172.038 148.18 172.775 156.107 172.775 156.107C172.65 159.374 156.988 169.24 151.819 165.44C147.131 162.527 139.706 150.8 134.956 137.647C130.175 124.494 138.556 118.067 138.556 118.067C138.556 118.067 137.406 114.72 141.194 108.427C144.144 103.46 188.125 93.6202 185.763 115.28C185.263 119.76 180.856 123.64 177.25 128.774Z" fill="black"/>
<path fill-rule="evenodd" clip-rule="evenodd" d="M125.55 206.467H171.169C174.469 206.467 177.194 210.373 177.194 215.147V251.453C177.194 256.227 174.469 260.133 171.169 260.133H125.55C122.225 260.133 119.506 256.227 119.506 251.453V215.147C119.506 210.373 122.225 206.467 125.55 206.467Z" fill="white"/>
<path fill-rule="evenodd" clip-rule="evenodd" d="M121.069 206.573H166.687C169.987 206.573 172.712 210.48 172.712 215.253V251.56C172.712 256.333 169.987 260.24 166.687 260.24H121.069C117.744 260.24 115.025 256.333 115.025 251.56V215.253C115.019 210.48 117.744 206.573 121.069 206.573ZM177.206 324.433H187.95V389.133H177.206V324.433Z" fill="black"/>
<path fill-rule="evenodd" clip-rule="evenodd" d="M144.25 387.74H222.3V392.28H144.25V387.74Z" fill="black"/>
<path fill-rule="evenodd" clip-rule="evenodd" d="M220.656 399.5C223.825 399.5 226.369 396.78 226.369 393.44C226.369 390.06 223.825 387.347 220.656 387.347C217.519 387.347 214.975 390.06 214.975 393.44C214.969 396.787 217.519 399.5 220.656 399.5ZM181.887 399.367C185.056 399.367 187.6 396.647 187.6 393.307C187.6 389.927 185.05 387.213 181.887 387.213C178.75 387.213 176.206 389.927 176.206 393.307C176.2 396.647 178.75 399.367 181.887 399.367ZM144.5 399.5C147.637 399.5 150.212 396.78 150.212 393.44C150.212 390.06 147.637 387.347 144.5 387.347C141.362 387.347 138.787 390.06 138.787 393.44C138.787 396.787 141.362 399.5 144.5 399.5ZM132.187 314.293H232.937C236.756 314.293 239.862 317.607 239.862 321.647C239.862 325.72 236.756 329.033 232.937 329.033H132.187C128.4 329.033 125.294 325.72 125.294 321.647C125.294 317.607 128.4 314.293 132.187 314.293Z" fill="black"/>
<path fill-rule="evenodd" clip-rule="evenodd" d="M149.369 177.793C149.525 175.673 150.931 169.707 150.931 169.707C150.931 169.707 173.787 168.047 179.225 170.767C180.075 171.193 185.356 179.493 185.356 179.493C170.944 176.707 158.612 176.573 149.369 177.793Z" fill="#BCD8FA"/>
<path fill-rule="evenodd" clip-rule="evenodd" d="M265.144 185.26H331.3L330.881 187.453L264.706 187.586L265.144 185.26ZM321.675 192.886C321.675 193.22 321.425 193.486 321.113 193.486H268.806C268.494 193.486 268.244 193.22 268.244 192.886C268.244 192.553 268.494 192.286 268.806 192.286H321.113C321.425 192.286 321.675 192.553 321.675 192.886ZM311.4 196.293C311.4 196.626 311.194 196.893 310.938 196.893H268.056C267.8 196.893 267.594 196.626 267.594 196.293C267.594 195.96 267.8 195.693 268.056 195.693H310.938C311.194 195.693 311.4 195.966 311.4 196.293ZM310.763 200.506C310.763 200.84 310.556 201.106 310.3 201.106H267.419C267.163 201.106 266.956 200.84 266.956 200.506C266.956 200.173 267.163 199.906 267.419 199.906H310.3C310.556 199.906 310.763 200.173 310.763 200.506ZM319.544 204.193C319.544 204.526 319.294 204.793 318.981 204.793H266.619C266.306 204.793 266.056 204.526 266.056 204.193C266.056 203.86 266.306 203.593 266.619 203.593H318.981C319.294 203.593 319.544 203.866 319.544 204.193ZM317.606 212.973C317.606 213.306 317.356 213.573 317.044 213.573H264.681C264.369 213.573 264.119 213.306 264.119 212.973C264.119 212.64 264.369 212.373 264.681 212.373H317.044C317.35 212.373 317.606 212.64 317.606 212.973ZM298.65 208.36C298.65 208.693 298.494 208.96 298.3 208.96H265.706C265.513 208.96 265.356 208.693 265.356 208.36C265.356 208.026 265.513 207.76 265.706 207.76H298.3C298.494 207.76 298.65 208.026 298.65 208.36ZM287.756 216.8C287.756 217.133 287.644 217.4 287.506 217.4H263.975C263.838 217.4 263.725 217.133 263.725 216.8C263.725 216.466 263.838 216.2 263.975 216.2H287.5C287.644 216.2 287.756 216.466 287.756 216.8ZM305.719 221.426C305.719 221.76 305.519 222.026 305.269 222.026H263.144C262.894 222.026 262.694 221.76 262.694 221.426C262.694 221.093 262.9 220.826 263.144 220.826H305.269C305.513 220.826 305.719 221.093 305.719 221.426Z" fill="#1E8191"/>
<path d="M243.087 72.2865C243.087 72.7732 242.719 73.1665 242.262 73.1665C241.806 73.1665 241.437 72.7732 241.437 72.2865C241.437 71.7998 241.806 71.4065 242.262 71.4065C242.719 71.4065 243.087 71.7998 243.087 72.2865ZM302.275 126.853C302.275 127.34 301.906 127.733 301.45 127.733C300.994 127.733 300.619 127.34 300.619 126.853C300.619 126.366 300.987 125.973 301.45 125.973C301.912 125.973 302.275 126.36 302.275 126.853ZM215.8 79.3798C215.8 79.8665 215.431 80.2598 214.975 80.2598C214.519 80.2598 214.15 79.8665 214.15 79.3798C214.15 78.8932 214.519 78.4932 214.975 78.4932C215.431 78.4998 215.8 78.8932 215.8 79.3798ZM149.175 78.4998C149.175 78.9865 148.806 79.3798 148.35 79.3798C147.894 79.3798 147.525 78.9865 147.525 78.4998C147.525 78.0132 147.894 77.6198 148.35 77.6198C148.806 77.6132 149.175 78.0132 149.175 78.4998ZM383.775 183.507C383.775 183.993 383.406 184.386 382.95 184.386C382.494 184.386 382.119 183.993 382.119 183.507C382.119 183.02 382.487 182.626 382.95 182.626C383.412 182.626 383.775 183.02 383.775 183.507ZM386.494 124.673L387.375 126.58L389.344 126.88L387.919 128.366L388.256 130.46L386.494 129.473L384.731 130.46L385.062 128.366L383.637 126.88L385.612 126.58L386.494 124.673ZM182.312 47.3198L183.412 49.6998L185.875 50.0798L184.094 51.9332L184.512 54.5532L182.312 53.3132L180.106 54.5532L180.525 51.9332L178.744 50.0798L181.206 49.6998L182.312 47.3198ZM429.156 163.867L430.262 166.246L432.725 166.626L430.944 168.48L431.362 171.1L429.156 169.86L426.956 171.1L427.375 168.48L425.594 166.626L428.056 166.246L429.156 163.867Z" fill="white"/>
<path d="M104.113 159.907C105.725 159.907 107.031 158.513 107.031 156.794C107.031 155.074 105.725 153.68 104.113 153.68C102.501 153.68 101.194 155.074 101.194 156.794C101.194 158.513 102.501 159.907 104.113 159.907Z" fill="white"/>
<path d="M325.588 90.6799C336.9 102.8 355.275 102.853 366.644 90.7933C378.006 78.7333 378.056 59.1266 366.75 47.0066C355.444 34.8866 337.063 34.8333 325.7 46.8933C314.331 58.9533 314.281 78.5599 325.588 90.6799Z" fill="white"/>
<path d="M52.1375 236.04L255.856 234.22L260.369 234.4L322.012 234.22L331.3 185.26L83.4312 49.0132" fill="url(#paint10_linear_11_56)"/>
<path opacity="0.2" d="M312.269 77.3002C309.938 77.3002 307.756 77.9802 305.894 79.1669C305.45 72.2336 300.038 66.7602 293.431 66.7602C291.819 66.7602 290.281 67.0869 288.869 67.6802C287.069 61.2536 281.488 56.5669 274.875 56.5669C266.813 56.5669 260.269 63.5402 260.269 72.1469C260.269 72.3669 260.275 72.5869 260.288 72.8002H260.269C252.206 72.8002 245.663 79.7736 245.663 88.3802C245.663 96.9802 252.2 103.96 260.269 103.96C260.775 103.96 261.269 103.934 261.763 103.88H310.906C311.356 103.934 311.806 103.96 312.269 103.96C319.169 103.96 324.763 97.9936 324.763 90.6336C324.763 83.2669 319.169 77.3002 312.269 77.3002Z" fill="url(#paint11_linear_11_56)"/>
</g>
<defs>
<linearGradient id="paint0_linear_11_56" x1="250.103" y1="-4.224" x2="250.103" y2="397.272" gradientUnits="userSpaceOnUse">
<stop stop-color="#7700BB"/>
<stop offset="1"/>
</linearGradient>
<linearGradient id="paint1_linear_11_56" x1="400.724" y1="326.056" x2="402.676" y2="326.056" gradientUnits="userSpaceOnUse">
<stop offset="0.041" stop-color="#100060"/>
<stop offset="1" stop-color="#090E96"/>
</linearGradient>
<linearGradient id="paint2_linear_11_56" x1="254.649" y1="212.374" x2="336.361" y2="212.374" gradientUnits="userSpaceOnUse">
<stop stop-color="#A1BAFF"/>
<stop offset="0.433" stop-color="white"/>
</linearGradient>
<linearGradient id="paint3_linear_11_56" x1="304.869" y1="239.457" x2="324.714" y2="239.457" gradientUnits="userSpaceOnUse">
<stop stop-color="#A1BAFF"/>
<stop offset="0.433" stop-color="white"/>
</linearGradient>
<linearGradient id="paint4_linear_11_56" x1="151.623" y1="209.92" x2="246.765" y2="209.92" gradientUnits="userSpaceOnUse">
<stop stop-color="#311341"/>
<stop offset="0.23" stop-color="#3113C2"/>
<stop offset="0.348" stop-color="#2F18C5"/>
<stop offset="0.493" stop-color="#2927CC"/>
<stop offset="0.652" stop-color="#1F40D8"/>
<stop offset="0.822" stop-color="#1263E9"/>
<stop offset="0.998" stop-color="#008FFF"/>
<stop offset="1" stop-color="#0090FF"/>
</linearGradient>
<linearGradient id="paint5_linear_11_56" x1="162.621" y1="130.773" x2="181.485" y2="177.727" gradientUnits="userSpaceOnUse">
<stop stop-color="#A1BAFF"/>
<stop offset="0.433" stop-color="white"/>
</linearGradient>
<linearGradient id="paint6_linear_11_56" x1="213.018" y1="316.587" x2="216.325" y2="387.894" gradientUnits="userSpaceOnUse">
<stop offset="0.041" stop-color="#100022"/>
<stop offset="1" stop-color="#090E96"/>
</linearGradient>
<linearGradient id="paint7_linear_11_56" x1="208.841" y1="297.492" x2="292.069" y2="386.442" gradientUnits="userSpaceOnUse">
<stop offset="0.041" stop-color="#10003B"/>
<stop offset="1" stop-color="#090E96"/>
</linearGradient>
<linearGradient id="paint8_linear_11_56" x1="132.384" y1="242.107" x2="210.881" y2="242.107" gradientUnits="userSpaceOnUse">
<stop stop-color="#7633FF"/>
<stop offset="0.159" stop-color="#7137FF"/>
<stop offset="0.353" stop-color="#6243FF"/>
<stop offset="0.568" stop-color="#4957FF"/>
<stop offset="0.794" stop-color="#2672FF"/>
<stop offset="1" stop-color="#0090FF"/>
</linearGradient>
<linearGradient id="paint9_linear_11_56" x1="187.484" y1="202.702" x2="279.541" y2="233.088" gradientUnits="userSpaceOnUse">
<stop stop-color="#7633FF"/>
<stop offset="0.097" stop-color="#7137FF"/>
<stop offset="0.216" stop-color="#6243FF"/>
<stop offset="0.346" stop-color="#4957FF"/>
<stop offset="0.484" stop-color="#2672FF"/>
<stop offset="0.61" stop-color="#0090FF"/>
</linearGradient>
<linearGradient id="paint10_linear_11_56" x1="70.49" y1="143.09" x2="393.493" y2="201.951" gradientUnits="userSpaceOnUse">
<stop offset="0.004" stop-color="#7633FF" stop-opacity="0"/>
<stop offset="0.092" stop-color="#7051FF" stop-opacity="0.088"/>
<stop offset="0.263" stop-color="#6685FF" stop-opacity="0.26"/>
<stop offset="0.43" stop-color="#5EB1FF" stop-opacity="0.428"/>
<stop offset="0.591" stop-color="#57D3FF" stop-opacity="0.589"/>
<stop offset="0.743" stop-color="#53EBFF" stop-opacity="0.742"/>
<stop offset="0.883" stop-color="#50FAFF" stop-opacity="0.883"/>
<stop offset="1" stop-color="#4FFFFF"/>
</linearGradient>
<linearGradient id="paint11_linear_11_56" x1="245.665" y1="80.2649" x2="324.764" y2="80.2649" gradientUnits="userSpaceOnUse">
<stop stop-color="#A1BAFF"/>
<stop offset="0.089" stop-color="#ACC2FF"/>
<stop offset="0.499" stop-color="#D9E3FF"/>
<stop offset="0.816" stop-color="#F5F7FF"/>
<stop offset="1" stop-color="white"/>
</linearGradient>
<clipPath id="clip0_11_56">
<rect width="500" height="400" fill="white"/>
</clipPath>
</defs>
</svg>
