<svg width="40" height="40" viewBox="0 0 40 40" fill="none" xmlns="http://www.w3.org/2000/svg">
<path id="Dislike" d="M8.57031 1.34174C5.71094 1.34174 4.28125 2.82984 4.28125 4.31795C4.28125 5.80606 5.71094 7.29417 7.14063 7.29417C4.28125 7.29417 2.85156 8.78227 2.85156 10.2704C2.85156 11.7585 4.28125 13.2466 5.71094 13.2466C2.85156 13.2466 1.42188 14.7347 1.42188 16.2228C1.42188 17.7109 2.85938 19.1909 4.28906 19.1909C1.42969 19.1909 0 20.6709 0 22.159C0 23.6471 1.42969 25.1352 2.85937 25.1352H14.2891C13.5781 28.1114 12.8594 31.0795 12.8594 32.5676C12.8594 35.5438 14.2891 38.5119 15 39.26C15.0156 39.2763 15.7109 40 17.1406 40C19.2812 40 19.2813 37.7719 19.2813 37.7719C19.2813 37.7312 19.9922 34.0557 19.9922 32.5676C19.9922 31.0795 22.8516 25.1352 24.2812 23.6471L25.7109 22.9071V2.08986L24.2812 1.34987H8.57031V1.34174ZM28.4297 0L27.1406 2.82984V22.159L28.5703 23.6471H39.8047C39.9219 22.6713 40 21.6792 40 20.6709C40 11.8154 35.3359 4.09839 28.4297 0Z" fill="#1683F0"/>
</svg>
