<svg xmlns="http://www.w3.org/2000/svg" width="60" height="60" viewBox="0 0 60 60" fill="none">
<g clip-path="url(#clip0_17_812)">
<path d="M50 3.05176e-05L10 3.05176e-05C4.47715 3.05176e-05 0 4.47718 0 10L0 50C0 55.5229 4.47715 60 10 60H50C55.5228 60 60 55.5229 60 50V10C60 4.47718 55.5228 3.05176e-05 50 3.05176e-05Z" fill="#1877F2"/>
<path d="M41.6778 38.6718L43.0078 30H34.6876V24.375C34.6876 22.002 35.8476 19.6875 39.5742 19.6875H43.3594V12.3047C43.3594 12.3047 39.9258 11.7188 36.6446 11.7188C29.789 11.7188 25.3124 15.873 25.3124 23.3906V30H17.6953V38.6718H25.3124V59.6368C26.8418 59.877 28.4062 60 30 60C31.5938 60 33.1582 59.877 34.6876 59.6368V38.6718H41.6778Z" fill="white"/>
</g>
<defs>
<clipPath id="clip0_17_812">
<rect width="60" height="60" fill="white"/>
</clipPath>
</defs>
</svg>