<svg xmlns="http://www.w3.org/2000/svg" width="60" height="60" viewBox="0 0 60 60" fill="none">
<path d="M29.9963 0C13.4325 0 1.73117e-05 13.7717 1.73117e-05 30.7603C-0.00675 37.2079 1.9707 43.4945 5.65288 48.7318C9.33507 53.9691 14.5358 57.8922 20.52 59.9467C22.02 60.23 22.5675 59.2803 22.5675 58.4646C22.5675 57.7331 22.5413 55.7991 22.5263 53.2331C14.1825 55.0906 12.42 49.1085 12.42 49.1085C11.0588 45.5546 9.09001 44.6086 9.09001 44.6086C6.36377 42.7014 9.29251 42.7397 9.29251 42.7397C12.3038 42.958 13.8863 45.9107 13.8863 45.9107C16.5638 50.6098 20.91 49.2541 22.62 48.4651C22.89 46.4775 23.6663 45.1218 24.525 44.352C17.865 43.5746 10.86 40.9359 10.86 29.1518C10.86 25.7932 12.03 23.0473 13.95 20.895C13.6388 20.1175 12.6113 16.9887 14.2425 12.7568C14.2425 12.7568 16.7625 11.9296 22.4925 15.9087C24.9403 15.2255 27.4662 14.8778 30.0038 14.8746C32.5414 14.8798 35.0672 15.2288 37.515 15.9125C43.2412 11.9334 45.7575 12.7606 45.7575 12.7606C47.3925 16.9963 46.365 20.1214 46.0575 20.8988C47.9812 23.0511 49.14 25.797 49.14 29.1557C49.14 40.9704 42.1275 43.5708 35.445 44.3329C36.5212 45.2826 37.4812 47.1592 37.4812 50.0277C37.4812 54.1408 37.4437 57.4573 37.4437 58.4646C37.4437 59.2879 37.9837 60.2454 39.5062 59.9428C45.4846 57.8835 50.6789 53.9589 54.356 48.7229C58.033 43.4869 60.0072 37.2038 60 30.7603C60 13.7717 46.5675 0 29.9963 0Z" fill="#5C6BC0"/>
</svg>