<svg width="60" height="60" viewBox="0 0 60 60" fill="none" xmlns="http://www.w3.org/2000/svg">
<circle cx="30" cy="30" r="30" fill="#1683F0"/>
<path d="M30 10C27.3736 10 24.7728 10.5302 22.3463 11.5602C19.9198 12.5903 17.715 14.1 15.8579 16.0033C12.1071 19.8471 10 25.0605 10 30.4965C10 39.556 15.74 47.2422 23.68 49.9683C24.68 50.1322 25 49.4968 25 48.9434V45.4795C19.46 46.7093 18.28 42.733 18.28 42.733C17.36 40.3554 16.06 39.72 16.06 39.72C14.24 38.4492 16.2 38.4902 16.2 38.4902C18.2 38.6337 19.26 40.6013 19.26 40.6013C21 43.7168 23.94 42.7945 25.08 42.3025C25.26 40.9703 25.78 40.0684 26.34 39.556C21.9 39.0436 17.24 37.2809 17.24 29.4717C17.24 27.1966 18 25.3724 19.3 23.9172C19.1 23.4047 18.4 21.2731 19.5 18.5061C19.5 18.5061 21.18 17.9527 25 20.5967C26.58 20.1458 28.3 19.9203 30 19.9203C31.7 19.9203 33.42 20.1458 35 20.5967C38.82 17.9527 40.5 18.5061 40.5 18.5061C41.6 21.2731 40.9 23.4047 40.7 23.9172C42 25.3724 42.76 27.1966 42.76 29.4717C42.76 37.3014 38.08 39.0231 33.62 39.5355C34.34 40.1709 35 41.4212 35 43.3274V48.9434C35 49.4968 35.32 50.1527 36.34 49.9683C44.28 47.2217 50 39.556 50 30.4965C50 27.8049 49.4827 25.1396 48.4776 22.6529C47.4725 20.1661 45.9993 17.9066 44.1421 16.0033C42.285 14.1 40.0802 12.5903 37.6537 11.5602C35.2272 10.5302 32.6264 10 30 10V10Z" fill="white"/>
</svg>
