<svg xmlns="http://www.w3.org/2000/svg" width="60" height="60" viewBox="0 0 60 60" fill="none">
  <g opacity="0.6">
    <path d="M46.5327 0H13.4673C6.0295 0 0 6.0295 0 13.4673V46.5327C0 53.9705 6.0295 60 13.4673 60H46.5327C53.9705 60 60 53.9705 60 46.5327V13.4673C60 6.0295 53.9705 0 46.5327 0Z" fill="url(#paint0_linear_18_817)"/>
    <path d="M20.7824 10.3914H39.4869C39.9025 10.5992 40.526 10.5992 40.9417 10.807C42.7657 11.1026 44.471 11.9011 45.8661 13.1126C47.2613 14.3242 48.2908 15.9008 48.8392 17.6654C49.1461 18.6822 49.3549 19.7261 49.4626 20.7828V39.0717C49.1655 41.3896 48.3097 43.6005 46.9687 45.5143C45.8183 46.8472 44.3761 47.8968 42.754 48.5817C41.132 49.2665 39.374 49.5681 37.6164 49.4631H22.0293C19.2476 49.5981 16.5126 48.7111 14.3397 46.9691C13.0183 45.8275 11.9756 44.3987 11.2911 42.7922C10.6067 41.1856 10.2988 39.4438 10.3909 37.7V23.152C10.3566 22.1086 10.4262 21.0643 10.5988 20.0346C10.8086 17.9039 11.6847 15.8936 13.1025 14.2893C14.5202 12.685 16.4076 11.5683 18.4962 11.098L20.7824 10.3914ZM14.3397 30.1351V38.2404C14.2511 39.2725 14.3892 40.3116 14.7443 41.2847C15.0994 42.2579 15.6629 43.1417 16.3954 43.8743C17.128 44.6068 18.0118 45.1703 18.9849 45.5254C19.9581 45.8805 20.9972 46.0186 22.0293 45.93C27.4329 46.1378 32.8364 46.1378 38.2399 45.93C43.02 45.93 45.7217 43.0204 45.9296 38.2404C46.1374 32.8368 46.1374 27.4333 45.9296 22.0298C45.9834 21.0058 45.8214 19.9819 45.454 19.0245C45.0866 18.0672 44.5221 17.1978 43.797 16.4727C43.0719 15.7476 42.2025 15.1831 41.2451 14.8157C40.2878 14.4483 39.2639 14.2863 38.2399 14.3401C32.8364 14.1323 27.4329 14.1323 22.0293 14.3401C20.9972 14.2515 19.9581 14.3896 18.9849 14.7447C18.0118 15.0998 17.128 15.6634 16.3954 16.3959C15.6629 17.1284 15.0994 18.0122 14.7443 18.9854C14.3892 19.9586 14.2511 20.9976 14.3397 22.0298V30.1351Z" fill="white"/>
    <path d="M20.0337 30.2183C20.0392 27.5191 21.1139 24.9321 23.0225 23.0235C24.9311 21.1149 27.5181 20.0402 30.2173 20.0347C32.9015 20.0879 35.4609 21.1778 37.3593 23.0762C39.2577 24.9746 40.3477 27.5341 40.4009 30.2183C40.3954 32.9174 39.3207 35.5045 37.4121 37.4131C35.5035 39.3217 32.9164 40.3964 30.2173 40.4019C27.5331 40.3487 24.9736 39.2587 23.0752 37.3603C21.1768 35.4619 20.0869 32.9025 20.0337 30.2183ZM30.2173 23.7756C28.955 23.7551 27.7153 24.1119 26.6571 24.8005C25.5989 25.489 24.7705 26.4779 24.2779 27.6403C23.7853 28.8027 23.651 30.0857 23.8923 31.3249C24.1335 32.5641 24.7393 33.703 25.632 34.5957C26.5247 35.4884 27.6636 36.0942 28.9029 36.3355C30.1421 36.5767 31.4251 36.4425 32.5875 35.9499C33.7499 35.4573 34.7387 34.6288 35.4272 33.5706C36.1158 32.5124 36.4726 31.2728 36.4521 30.0104C36.4521 28.3569 35.7952 26.771 34.626 25.6017C33.4567 24.4325 31.8709 23.7756 30.2173 23.7756Z" fill="white"/>
    <path d="M38.1157 19.619C38.1041 19.2883 38.1607 18.9588 38.2819 18.651C38.4031 18.3432 38.5864 18.0636 38.8204 17.8296C39.0543 17.5957 39.3339 17.4124 39.6417 17.2912C39.9496 17.17 40.279 17.1134 40.6097 17.125C41.2567 17.1688 41.8659 17.4456 42.3245 17.9042C42.783 18.3627 43.0599 18.9719 43.1036 19.619C43.1036 20.2804 42.8409 20.9147 42.3732 21.3824C41.9055 21.8501 41.2711 22.1129 40.6097 22.1129C39.9482 22.1129 39.3139 21.8501 38.8462 21.3824C38.3785 20.9147 38.1157 20.2804 38.1157 19.619Z" fill="white"/>
  </g>
  <defs>
    <linearGradient id="paint0_linear_18_817" x1="-3.82404" y1="63.3253" x2="66.8375" y2="-6.29719" gradientUnits="userSpaceOnUse">
      <stop stop-color="#FED576"/>
      <stop offset="0.26" stop-color="#F47133"/>
      <stop offset="0.61" stop-color="#BC3081"/>
      <stop offset="1" stop-color="#4C63D2"/>
    </linearGradient>
  </defs>
</svg>
