<svg width="40" height="40" viewBox="0 0 40 40" fill="none" xmlns="http://www.w3.org/2000/svg">
<path d="M0.195312 16.3529C0.078125 17.3287 0 18.3208 0 19.3291C0 28.1927 4.66406 35.9097 11.5703 40L12.8594 37.1702V17.841L11.4297 16.3529H0.195312ZM40 17.841C40 16.3529 38.5703 14.8648 37.1406 14.8648H25.7109C26.4219 11.8886 27.1406 8.92051 27.1406 7.43241C27.1406 4.45619 25.7109 1.48811 25 0.739988C24.9844 0.723724 24.2891 0 22.8594 0C20.7188 0 20.7188 2.2281 20.7188 2.2281C20.7188 2.26875 20.0078 5.9443 20.0078 7.43241C20.0078 8.92051 17.1484 14.8648 15.7187 16.3529L14.2891 17.0929V37.9101L15.7187 38.6501H31.4297C34.2891 38.6501 35.7188 37.162 35.7188 35.6739C35.7188 34.1858 34.2891 32.6977 32.8594 32.6977C35.7188 32.6977 37.1484 31.2096 37.1484 29.7215C37.1484 28.2334 35.7187 26.7453 34.2891 26.7453C37.1484 26.7453 38.5781 25.2572 38.5781 23.7691C38.5781 22.281 37.1484 20.7928 35.7188 20.7928C38.5703 20.8172 40 19.3291 40 17.841V17.841Z" fill="#1683F0"/>
</svg>
