<svg xmlns="http://www.w3.org/2000/svg" width="80" height="80" viewBox="0 0 80 80" fill="none">
<path d="M63.0886 0H16.9114C7.57151 0 0 7.5713 0 16.9112V63.0884C0 72.4284 7.57151 80 16.9114 80H63.0886C72.4285 80 80 72.4284 80 63.0884V16.9112C80 7.5713 72.4285 0 63.0886 0Z" fill="#0E20CB"/>
<path d="M39.9563 17.3463C36.0516 17.344 32.2322 18.4876 28.9716 20.6353C25.7111 22.7831 23.1528 25.8405 21.614 29.4284C20.0753 33.0162 19.6237 36.9768 20.3155 40.8188C21.0072 44.6609 22.8117 48.2153 25.5052 51.0415C25.59 51.1867 25.6962 51.3184 25.8202 51.4321L37.3609 62.9325C38.7845 64.3559 41.1406 64.3559 42.5768 62.9325L54.0797 51.4697C54.0925 51.4573 54.1051 51.4449 54.1175 51.4321C54.1176 51.4279 54.1176 51.4236 54.1175 51.4194C54.1811 51.361 54.2401 51.2981 54.2939 51.2306C54.3068 51.2141 54.3194 51.1973 54.3317 51.1803C57.0768 48.3685 58.9293 44.8079 59.6561 40.9465C60.383 37.085 59.9519 33.0951 58.4169 29.4779C56.882 25.8608 54.3117 22.778 51.0293 20.6173C47.7469 18.4565 43.8988 17.314 39.9689 17.3336L39.9563 17.3463ZM39.9563 20.6719C43.2445 20.6758 46.4581 21.6527 49.1919 23.4796C51.9258 25.3065 54.0576 27.9017 55.3187 30.9379C56.5798 33.9742 56.9137 37.3156 56.2785 40.5413C55.6432 43.767 54.0672 46.7325 51.7489 49.0641C51.709 49.1041 51.6712 49.1459 51.6355 49.1898L40.2334 60.5645C40.0696 60.7283 39.8807 60.7283 39.7295 60.5645L28.4785 49.3789C28.3943 49.2709 28.297 49.1735 28.1888 49.0891C25.8573 46.7626 24.2687 43.7967 23.6242 40.5671C22.9797 37.3374 23.3083 33.9892 24.5683 30.9464C25.8284 27.9035 27.9632 25.3029 30.7024 23.4738C33.4417 21.6448 36.6623 20.6698 39.9563 20.6719ZM40.0066 27.3729C37.3534 27.3796 34.8109 28.4371 32.9359 30.314C31.061 32.191 30.0064 34.7345 30.003 37.3872C30.0951 39.9833 31.1914 42.4422 33.0609 44.2463C34.9304 46.0503 37.4273 47.0586 40.0255 47.0586C42.6238 47.0586 45.1207 46.0503 46.9902 44.2463C48.8597 42.4422 49.956 39.9833 50.0481 37.3872C50.0381 34.73 48.9761 32.1848 47.0944 30.3083C45.2128 28.4317 42.6644 27.3762 40.0066 27.3729ZM40.0066 30.6985C40.8867 30.6951 41.7588 30.8657 42.5727 31.2005C43.3865 31.5353 44.1262 32.0277 44.7491 32.6493C45.372 33.2709 45.8659 34.0093 46.2023 34.8224C46.5387 35.6355 46.711 36.5073 46.7093 37.3872C46.7093 39.1578 46.0058 40.8558 44.7535 42.1078C43.5013 43.3598 41.8028 44.0633 40.0318 44.0633C38.2609 44.0633 36.5624 43.3598 35.3102 42.1078C34.0579 40.8558 33.3544 39.1578 33.3544 37.3872C33.3544 33.6839 36.3025 30.6985 40.0066 30.6985Z" fill="white"/>
</svg>