<svg xmlns="http://www.w3.org/2000/svg" width="80" height="80" viewBox="0 0 80 80" fill="none">
<path d="M70.4001 1.59998H9.6001C5.1817 1.59998 1.6001 5.18158 1.6001 9.59998V70.4C1.6001 74.8184 5.1817 78.4 9.6001 78.4H70.4001C74.8185 78.4 78.4001 74.8184 78.4001 70.4V9.59998C78.4001 5.18158 74.8185 1.59998 70.4001 1.59998Z" fill="#0E20CB"/>
<path d="M58.5928 29.6L57.4328 28.44C56.9448 28.168 56.3928 28 55.7928 28H24.2168C23.4808 28 22.8088 28.24 22.2488 28.632L26.7528 33.136L21.1928 29.864C20.9448 30.336 20.8008 30.856 20.8008 31.408V48.584C20.8008 49.576 21.2328 50.472 21.9128 51.088L21.8888 51.08L49.2088 78.4H70.4C74.8184 78.4 78.4 74.8184 78.4 70.4V49.32L58.6488 29.568L58.5928 29.6Z" fill="#1D289E"/>
<path d="M58.6521 29.572L41.8776 39.7936C41.3129 40.138 40.6653 40.3225 40.0039 40.3274C39.3425 40.3323 38.6922 40.1575 38.1224 39.8216L21.1888 29.8672C20.9371 30.3435 20.8038 30.8733 20.8 31.412V48.588C20.8 50.468 22.336 51.996 24.216 51.996H55.792C57.672 51.996 59.2 50.468 59.2 48.588V31.412C59.2 30.7328 58.9952 30.104 58.6521 29.572Z" fill="white"/>
<path d="M41.0449 38.4272L57.4313 28.4424C56.9313 28.1587 56.367 28.0078 55.7921 28.004H24.2161C23.5112 28.0051 22.8242 28.2257 22.2505 28.6352L38.9337 38.4432C39.5881 38.828 40.3977 38.8224 41.0449 38.4272Z" fill="white"/>
</svg>