<svg width="60" height="60" viewBox="0 0 60 60" fill="none" xmlns="http://www.w3.org/2000/svg">
<path d="M60 30C60 46.5685 46.5685 60 30 60C13.4314 60 -1.24093e-05 46.5685 -1.24093e-05 30C-1.24093e-05 13.4315 13.4314 -3.95416e-06 30 -3.95416e-06C46.5685 -3.95416e-06 60 13.4315 60 30Z" fill="#1683F0"/>
<path d="M40.2605 25.3525L50 29.6177V29.3964C49.86 28.9136 49.44 28.4911 48.6001 27.6461L44.6003 23.6223L40.4605 25.3727L40.2605 25.3525ZM30.401 20.4435C30.5666 20.7353 30.6752 21.0563 30.7209 21.3891L36.7206 23.9845C36.8993 23.8627 37.0947 23.7678 37.3006 23.7028L38.2606 17.6671L34.2608 13.6433L30.361 20.2826C30.361 20.2826 30.361 20.3832 30.401 20.4435ZM27.2211 19.9607C27.4974 19.7362 27.8236 19.5823 28.1719 19.5123C28.5202 19.4422 28.8801 19.458 29.221 19.5583H29.321L33.6408 12.8386L32.3209 11.5107C31.4809 10.6658 31.0609 10.2433 30.5809 10.1024C30.1719 9.96586 29.73 9.96586 29.321 10.1024C28.841 10.2433 28.4211 10.6658 27.5811 11.5107L21.5814 17.5464C22.2014 17.8281 26.5811 19.679 27.1411 19.9406L27.2211 19.9607ZM20.9814 30.6036H21.5214C21.7142 30.5841 21.9085 30.5841 22.1014 30.6036L26.8611 23.1998V23.0791C26.6144 22.8348 26.4349 22.5302 26.3402 22.1952C26.2456 21.8602 26.239 21.5062 26.3212 21.1678L24.0013 19.9607L20.6014 18.492L16.0017 23.1998L21.0214 30.5633L20.9814 30.6036ZM36.2207 25.6946V25.5336C36.2096 25.4401 36.2096 25.3455 36.2207 25.2519L30.5009 22.6968H30.401C30.2086 22.9889 29.947 23.2283 29.6398 23.3933C29.3325 23.5584 28.9893 23.644 28.641 23.6424H28.3011C28.3011 23.6424 28.2011 23.6424 28.1811 23.743L23.4613 31.0261V31.1267L36.1207 25.6946C36.1207 25.6946 36.2207 25.7348 36.2207 25.6946ZM38.9405 23.8637C39.137 23.9558 39.3137 24.0857 39.4605 24.246L43.4603 22.556L39.6805 18.7938L38.8805 23.7631L38.9405 23.8637ZM34.3608 35.0096C34.5191 34.7123 34.7561 34.4647 35.0455 34.2943C35.3349 34.1239 35.6654 34.0373 36.0007 34.0439V33.9433L37.0806 27.1632L36.9006 27.0023L24.0013 32.3338C24.0638 32.512 24.1172 32.6933 24.1613 32.877L34.3608 35.0096ZM34.2808 36.3173L23.8413 34.0439V34.1646L32.9408 48.1271L33.7808 47.262C34.0808 45.4111 35.2007 38.5505 35.3407 37.7659C35.0539 37.6383 34.8052 37.4375 34.6193 37.1834C34.4334 36.9293 34.3167 36.6308 34.2808 36.3173ZM37.5806 36.9611C37.3915 37.2019 37.1434 37.3891 36.8606 37.5043L35.5807 45.4312L42.8603 38.0677L37.5806 36.9611ZM39.7205 26.6401C39.7018 26.6312 39.6813 26.6266 39.6605 26.6266C39.6398 26.6266 39.6193 26.6312 39.6005 26.6401C39.299 27.0206 38.8608 27.2663 38.3806 27.3242V27.4449L37.2806 34.2853C37.4735 34.4346 37.6336 34.6226 37.7506 34.8373C37.8677 35.052 37.9392 35.2888 37.9606 35.5327H38.0806L43.9803 36.7599L48.5401 32.1728C49.0297 31.7293 49.4659 31.2297 49.84 30.684L39.7205 26.6401ZM22.6013 35.2309C22.0455 35.4321 21.4373 35.4321 20.8814 35.2309L18.4415 39.0535L27.8211 48.4691C28.2943 49.0635 28.8873 49.5504 29.561 49.8976C29.97 50.0341 30.4119 50.0341 30.8209 49.8976C31.3676 49.6539 31.8478 49.2812 32.2209 48.8112L22.8413 35.1303L22.6013 35.2309ZM18.7815 33.219C18.7815 33.219 18.9015 33.219 18.9015 33.1184C18.9015 33.0178 18.9015 33.1184 18.7815 33.1184L10.5019 31.3882C10.8228 31.7681 11.1632 32.1307 11.5219 32.4746L14.2417 35.2108L18.7815 33.1989V33.219ZM19.3415 31.8912C19.445 31.6897 19.58 31.5063 19.7415 31.348V31.2273C18.2015 28.813 16.6016 26.4792 15.0017 24.1253L11.5019 27.6461C10.6619 28.4911 10.2419 28.9136 10.1019 29.3964C10.0252 29.5949 9.99116 29.8075 10.0019 30.0201L19.3415 32.032V31.8912ZM19.6815 34.567C19.6282 34.5048 19.5813 34.4374 19.5415 34.3658L15.1817 36.0558L17.3416 38.2689L19.6815 34.6072C19.6815 34.6072 19.7015 34.567 19.6815 34.567Z" fill="white"/>
</svg>
