<svg xmlns="http://www.w3.org/2000/svg" width="80" height="80" viewBox="0 0 80 80" fill="none">
<g clip-path="url(#clip0_18_834)">
<path d="M72.4378 0H7.56219C3.38571 0 0 3.38571 0 7.56219V72.4378C0 76.6143 3.38571 80 7.56219 80H72.4378C76.6143 80 80 76.6143 80 72.4378V7.56219C80 3.38571 76.6143 0 72.4378 0Z" fill="#0E20CB"/>
<path fill-rule="evenodd" clip-rule="evenodd" d="M42.5872 13.5323C57.3135 15.5224 64.0797 22.6866 66.0697 37.4129C66.0697 39.005 66.0697 40.597 67.6618 40.597C69.2538 40.597 69.2538 39.403 69.2538 38.2089V37.4129C69.6518 23.4826 57.3135 10.7463 42.9852 10.3482C41.7911 10.3482 39.4031 9.55223 39.4031 11.9403C39.4031 13.5323 41.3931 13.1343 42.5872 13.5323Z" fill="#FEFEFE"/>
<path fill-rule="evenodd" clip-rule="evenodd" d="M45.3731 17.5124C43.781 17.1144 42.189 16.7164 41.791 18.3084C41.393 20.6965 43.383 20.2985 44.9751 20.6965C54.1293 22.6866 57.3134 25.8706 58.9054 35.0249V36.2189C58.9054 37.0149 59.3034 38.2089 60.8955 37.8109C61.6915 37.8109 62.0895 37.4129 62.0895 36.6169V35.0249C62.0895 26.2686 54.5273 18.3084 45.3731 17.5124Z" fill="#FEFEFE"/>
<path fill-rule="evenodd" clip-rule="evenodd" d="M46.1692 24.2786C45.3732 24.2786 44.1791 24.6766 44.1791 25.4726C43.3831 27.0647 44.5771 27.4627 45.7712 27.4627C49.3533 28.2587 51.3433 30.2487 51.7413 33.8308C51.7413 34.6269 52.1393 35.0249 52.1393 35.4229C52.5373 35.4229 52.9353 35.8209 53.7314 35.8209L54.1294 35.4229C54.9254 35.0249 54.9254 34.2288 54.9254 33.4328C54.9254 29.0547 50.1493 24.2786 46.1692 24.2786ZM65.2737 53.3333C63.2836 51.7413 61.2936 50.5473 59.7015 49.3532C55.7214 46.5672 52.1393 46.5672 48.9552 50.5473C47.3632 52.9353 45.3732 53.3333 42.9851 52.1393C36.2189 49.3532 31.0448 44.5771 28.2587 38.2089C27.8607 37.0149 27.4627 36.2189 27.4627 35.0249C27.0647 33.4328 27.8607 31.8408 29.8508 30.6468C31.4428 29.4527 33.0348 28.2587 33.0348 25.8706C33.0348 22.6866 25.0747 12.3383 22.2886 11.1443C21.0946 10.7463 19.9005 10.7463 18.3085 11.1443C11.1443 13.5323 8.35823 19.5025 11.1443 26.2687C12.7363 29.8507 14.7264 33.4328 16.7164 36.6169C25.4727 51.3433 38.209 62.0895 54.9254 68.8557C56.1194 69.6517 57.3135 69.6517 57.7115 70.0497C62.4876 70.0497 68.0597 65.6716 69.6518 61.2935C70.8458 56.9154 67.6617 55.3234 65.2737 53.3333Z" fill="#FEFEFE"/>
</g>
<defs>
<clipPath id="clip0_18_834">
<rect width="80" height="80" fill="white"/>
</clipPath>
</defs>
</svg>