<svg xmlns="http://www.w3.org/2000/svg" width="60" height="60" viewBox="0 0 60 60" fill="none">
  <g clip-path="url(#clip0_18_823)">
    <path d="M43.5712 0H16.4288C7.35542 0 0 7.35542 0 16.4288V43.5712C0 52.6446 7.35542 60 16.4288 60H43.5712C52.6446 60 60 52.6446 60 43.5712V16.4288C60 7.35542 52.6446 0 43.5712 0Z" fill="url(#paint0_radial_18_823)"/>
    <path d="M31.9644 39.6345L30.9732 40.7024C29.8467 41.8448 28.8329 42.9996 27.7403 44.1296C27.2939 44.6322 26.7277 44.9852 26.1069 45.1478H25.9718H25.8028C25.7972 45.09 25.7972 45.0317 25.8028 44.974C25.9042 43.4466 26.0168 41.9069 26.1295 40.3672C26.2196 39.0137 26.321 37.6602 26.4111 36.2943C26.4111 35.9094 26.4674 35.512 26.5012 35.1271C26.5199 35.04 26.5633 34.9617 26.6251 34.9036L31.649 29.8373L41.787 19.6552L43.1387 18.2893C43.2303 18.1949 43.3133 18.0909 43.3866 17.9788C43.5217 17.7677 43.4542 17.5939 43.2289 17.5318C43.112 17.4918 42.9891 17.4778 42.8673 17.4905C42.7454 17.5033 42.6271 17.5427 42.5192 17.6063C42.3351 17.7074 42.1581 17.8236 41.9898 17.954L22.6825 31.3398C22.3221 31.5882 21.9729 31.8489 21.5561 32.0848C21.4575 32.1217 21.3506 32.1217 21.252 32.0848L12.6009 29.1916C12.3082 29.104 12.022 28.992 11.7448 28.8563C11.6112 28.8051 11.491 28.7186 11.3947 28.6044C11.2984 28.4902 11.2289 28.3517 11.1922 28.2011C11.1556 28.0505 11.1529 27.8923 11.1844 27.7403C11.2159 27.5883 11.2807 27.4471 11.3731 27.329C11.5984 26.9589 11.9206 26.6731 12.2967 26.5095C13.1829 26.0956 14.0728 25.6817 14.9664 25.2678L29.5426 19.0591L47.5657 11.3977C47.8052 11.293 48.0545 11.218 48.3091 11.1742C48.7426 11.1209 49.1778 11.2558 49.5226 11.5501C49.8674 11.8445 50.0948 12.2752 50.1565 12.7512C50.2577 13.2835 50.2577 13.8331 50.1565 14.3654C49.413 18.2272 48.6583 22.0889 47.9036 25.9631L45.3804 38.8274C44.9748 40.9384 44.5806 43.0369 44.1525 45.1354C44.0718 45.5651 43.9431 45.9822 43.7696 46.3771C43.702 46.5795 43.5986 46.765 43.4654 46.9229C43.3321 47.0808 43.1718 47.208 42.9936 47.2969C42.8154 47.3859 42.6229 47.4349 42.4274 47.4412C42.2319 47.4474 42.0372 47.4107 41.8546 47.3332C41.384 47.198 40.9408 46.9663 40.5479 46.6503C37.7318 44.3283 34.9157 42.0187 32.0658 39.6966L31.9644 39.6345Z" fill="url(#paint1_linear_18_823)"/>
  </g>
  <defs>
    <radialGradient id="paint0_radial_18_823" cx="0" cy="0" r="1" gradientUnits="userSpaceOnUse" gradientTransform="translate(28.8666 -25.4569) scale(69.7546)">
      <stop stop-color="#6FCEE7"/>
      <stop offset="0.2" stop-color="#58B7DB"/>
      <stop offset="0.42" stop-color="#48A7D3"/>
      <stop offset="0.67" stop-color="#3F9ECE"/>
      <stop offset="1" stop-color="#3C9BCC"/>
    </radialGradient>
    <linearGradient id="paint1_linear_18_823" x1="30.7028" y1="47.4574" x2="30.7028" y2="11.2114" gradientUnits="userSpaceOnUse">
      <stop offset="0.16" stop-color="#E1F4FD"/>
      <stop offset="0.4" stop-color="#F2FAFE"/>
      <stop offset="0.67" stop-color="#FCFEFF"/>
      <stop offset="1" stop-color="white"/>
    </linearGradient>
    <clipPath id="clip0_18_823">
      <rect width="60" height="60" fill="white"/>
    </clipPath>
  </defs>
</svg>
